<?xml version="1.0" standalone="no"?>
<!DOCTYPE svg PUBLIC "-//W3C//DTD SVG 1.0//EN" "http://www.w3.org/TR/2001/REC-SVG-20010904/DTD/svg10.dtd">
<svg xmlns="http://www.w3.org/2000/svg" xmlns:xlink="http://www.w3.org/1999/xlink" id="body_1" width="31" height="31">

<g transform="matrix(0.074438885 0 0 0.074438885 0 0)">
	<g>
		<g>
			<g>
				<g>
                    <path d="M399.76 16.699C 409.88 54.539 408.43002 94.828995 395.42 131.979L395.42 131.979L395.41 131.979L284.48 21.049L284.48 21.039C 321.63 8.029 361.92 6.579 399.76 16.699z" stroke="none" fill="#FF7124" fill-rule="nonzero" />
				</g>
				<g>
                    <path d="M90.21 207.929L177.35 106.509L177.36 106.509L211.07 67.269C 232.5 45.838997 257.67 30.428997 284.48 21.038998L284.48 21.038998L284.48 21.048998L395.41 131.979L395.42 131.979C 386.03 158.789 370.62003 183.959 349.19 205.389L349.19 205.389L309.95 239.099L208.52002 326.239L178.95001 296.669L149.37001 267.08902L119.79001 237.50902L90.21 207.929zM296.11 193.399C 316.28998 173.229 316.28998 140.509 296.11 120.339005C 275.93997 100.159004 243.21999 100.159004 223.04999 120.339005C 202.87 140.509 202.87 173.229 223.04999 193.399C 243.22 213.579 275.94 213.579 296.11 193.399z" stroke="none" fill="#F2D59F" fill-rule="nonzero" />
				</g>
				<g>
                    <path d="M309.95 239.099C 311.69 284.699 295.15002 330.879 260.34003 365.689C 249.65002 376.369 237.90002 385.339 225.41003 392.57898L225.41003 392.57898L208.52003 326.23898L309.95 239.099z" stroke="none" fill="#F2D59F" fill-rule="nonzero" />
				</g>
				<g>
                    <path d="M296.11 120.339C 316.28998 140.509 316.28998 173.229 296.11 193.39899C 275.93997 213.57898 243.21999 213.57898 223.04999 193.39899C 202.87 173.22899 202.87 140.50899 223.04999 120.33899C 243.22 100.159 275.94 100.159 296.11 120.339z" stroke="none" fill="#8ECAC1" fill-rule="nonzero" />
				</g>
				<g>
                    <path d="M208.52 326.239L168.58 340.949C 157.6 344.999 145.27 342.289 137 334.009L137 334.009L130.15 327.159L178.95 296.669L208.52 326.239z" stroke="none" fill="#E6B263" fill-rule="nonzero" />
				</g>
				<g>
                    <path d="M178.95 296.669L130.15 327.159L130.14 327.159L109.72 306.739L149.37 267.089L178.95 296.669" stroke="none" fill="#E6B263" fill-rule="nonzero" />
				</g>
				<g>
                    <path d="M177.35 106.509L90.21001 207.929L23.880005 191.049C 31.120005 178.55899 40.090004 166.80899 50.770004 156.11899C 85.58 121.309 131.74 104.769 177.35 106.509z" stroke="none" fill="#F2D59F" fill-rule="nonzero" />
				</g>
				<g>
                    <path d="M149.37 267.089L109.72 306.739L89.3 286.309L119.79 237.509L149.37 267.089" stroke="none" fill="#E6B263" fill-rule="nonzero" />
				</g>
				<g>
                    <path d="M119.79 237.509L89.3 286.309L82.44 279.45898C 74.17 271.179 71.46001 258.85898 75.5 247.87898L75.5 247.87898L90.21 207.92899L119.79 237.509z" stroke="none" fill="#E6B263" fill-rule="nonzero" />
				</g>
			</g>
			<g>
				<g>
                    <path d="M28.88 339.459C 26.321 339.459 23.761 338.48203 21.808998 336.53003C 17.903997 332.62503 17.903997 326.29303 21.808998 322.38702L21.808998 322.38702L42.349 301.84702C 46.253998 297.94302 52.586 297.94302 56.491997 301.84702C 60.396996 305.752 60.396996 312.084 56.491997 315.99002L56.491997 315.99002L35.951996 336.53003C 33.999 338.482 31.44 339.459 28.88 339.459z" stroke="none" fill="#5E2A41" fill-rule="nonzero" />
				</g>
				<g>
                    <path d="M10 416.439C 7.44 416.439 4.881 415.462 2.928 413.509C -0.977 409.604 -0.9760001 403.272 2.929 399.367L2.929 399.367L71.399 330.907C 75.304 327.00302 81.636 327.00302 85.541 330.90802C 89.446 334.81302 89.445 341.14502 85.539 345.05002L85.539 345.05002L17.069 413.51C 15.118 415.463 12.559 416.439 10 416.439z" stroke="none" fill="#5E2A41" fill-rule="nonzero" />
				</g>
				<g>
                    <path d="M73.29 411.259C 70.73 411.259 68.172 410.282 66.219 408.33002C 62.314003 404.42502 62.314003 398.09302 66.219 394.187L66.219 394.187L100.449005 359.958C 104.354004 356.05402 110.686005 356.055 114.591 359.958C 118.496 363.863 118.496 370.195 114.591 374.101L114.591 374.101L80.36101 408.33002C 78.409 410.282 75.849 411.259 73.29 411.259z" stroke="none" fill="#5E2A41" fill-rule="nonzero" />
				</g>
				<g>
                    <path d="M208.52 336.239C 205.96 336.239 203.40201 335.26202 201.449 333.31003L201.449 333.31003L83.139 215C 79.234 211.095 79.234 204.763 83.139 200.857C 87.044 196.95299 93.376 196.95299 97.282 200.857L97.282 200.857L215.592 319.168C 219.497 323.073 219.497 329.405 215.592 333.311C 213.639 335.263 211.079 336.239 208.52 336.239z" stroke="none" fill="#5E2A41" fill-rule="nonzero" />
				</g>
				<g>
                    <path d="M259.58 218.534C 243.10599 218.534 227.62099 212.118 215.97598 200.468C 204.32999 188.827 197.91399 173.34201 197.91399 156.86801C 197.91399 140.39401 204.32999 124.90901 215.97899 113.26401C 227.62 101.61801 243.10498 95.20201 259.57898 95.20201C 276.05298 95.20201 291.53796 101.61801 303.18298 113.26701C 314.82797 124.90801 321.244 140.393 321.244 156.867C 321.244 173.339 314.82898 188.823 303.18298 200.46701C 303.18198 200.46901 303.18198 200.46802 303.179 200.47101C 291.536 212.119 276.052 218.534 259.58 218.534zM259.58 115.204C 248.44998 115.204 237.98799 119.538 230.12299 127.408005C 222.249 135.27701 217.91498 145.739 217.91498 156.869C 217.91498 167.99901 222.24898 178.461 230.11897 186.326C 237.98798 194.2 248.44997 198.534 259.58 198.534C 270.71 198.534 281.172 194.2 289.037 186.33C 289.039 186.329 289.03998 186.328 289.041 186.326C 296.91098 178.461 301.245 167.99901 301.245 156.869C 301.245 145.739 296.91098 135.27701 289.041 127.412C 281.172 119.538 270.71 115.204 259.58 115.204z" stroke="none" fill="#5E2A41" fill-rule="nonzero" />
				</g>
				<g>
                    <path d="M89.291 296.31C 87.481 296.31 85.649 295.82 84.001 294.789C 79.317 291.863 77.893 285.693 80.819 281.01L80.819 281.01L111.309 232.21C 114.236 227.526 120.406 226.1 125.089 229.028C 129.773 231.954 131.19699 238.124 128.271 242.807L128.271 242.807L97.781 291.607C 95.884 294.643 92.625 296.31 89.291 296.31z" stroke="none" fill="#5E2A41" fill-rule="nonzero" />
				</g>
				<g>
                    <path d="M109.72 316.739C 107.161 316.739 104.602005 315.76202 102.649 313.81003C 98.744 309.90503 98.743004 303.57303 102.648 299.66702L102.648 299.66702L142.298 260.01703C 146.203 256.11304 152.535 256.11304 156.44 260.01703C 160.345 263.92203 160.34601 270.25403 156.44101 274.15903L156.44101 274.15903L116.79101 313.80902C 114.839 315.763 112.279 316.739 109.72 316.739z" stroke="none" fill="#5E2A41" fill-rule="nonzero" />
				</g>
				<g>
                    <path d="M130.16 337.16C 126.826004 337.16 123.567 335.49402 121.670006 332.458C 118.744 327.77402 120.16901 321.604 124.852005 318.67902L124.852005 318.67902L173.65201 288.18903C 178.335 285.26004 184.505 286.68604 187.432 291.37103C 190.358 296.05502 188.93301 302.22403 184.25 305.15002L184.25 305.15002L135.45 335.64C 133.801 336.67 131.97 337.16 130.16 337.16z" stroke="none" fill="#5E2A41" fill-rule="nonzero" />
				</g>
				<g>
                    <path d="M177.356 116.509C 175.049 116.509 172.731 115.715004 170.84401 114.094C 166.65501 110.495 166.17601 104.182 169.77501 99.992004L169.77501 99.992004L203.48502 60.752003C 207.08302 56.564003 213.39601 56.084003 217.58702 59.684002C 221.77602 63.283 222.25502 69.596 218.65501 73.785L218.65501 73.785L184.945 113.02501C 182.968 115.327 180.17 116.509 177.356 116.509z" stroke="none" fill="#5E2A41" fill-rule="nonzero" />
				</g>
				<g>
                    <path d="M158.265 352.787C 147.817 352.787 137.54199 348.702 129.925 341.07498L129.925 341.07498L123.343 334.49298C 123.25 334.40698 123.159004 334.31998 123.07 334.22998L123.07 334.22998L75.376 286.53497C 64.384 275.52896 60.753 259.00397 66.117 244.42596L66.117 244.42596L80.826996 204.47397C 81.24 203.35397 81.849 202.31697 82.626 201.41296L82.626 201.41296L169.76599 99.992966C 173.36699 95.80496 179.67899 95.325966 183.868 98.924965C 188.05699 102.52496 188.535 108.83797 184.93599 113.02696L184.93599 113.02696L98.971 213.077L84.885 251.334C 82.203 258.623 84.021 266.89 89.517 272.393L89.517 272.393L136.949 319.826C 137.041 319.912 137.13301 319.999 137.222 320.089L137.222 320.089L144.072 326.939C 149.569 332.443 157.828 334.257 165.12001 331.569L165.12001 331.569L203.37201 317.48L342.674 197.80501C 346.86502 194.205 353.178 194.686 356.776 198.873C 360.376 203.062 359.897 209.376 355.708 212.975L355.708 212.975L215.036 333.824C 214.13199 334.601 213.096 335.211 211.97699 335.62302L211.97699 335.62302L172.03598 350.333C 167.557 351.985 162.893 352.787 158.265 352.787z" stroke="none" fill="#5E2A41" fill-rule="nonzero" />
				</g>
				<g>
                    <path d="M349.19 215.389C 346.631 215.389 344.072 214.412 342.119 212.46C 338.214 208.55501 338.214 202.223 342.119 198.317C 362.004 178.433 376.761 155.002 385.982 128.673C 397.718 95.161 399.608 59.423004 391.518 24.940002C 357.038 16.851002 321.297 18.741003 287.785 30.476002C 261.456 39.697002 238.024 54.455 218.14001 74.339005C 214.23502 78.243004 207.90402 78.244 203.99701 74.339005C 200.09201 70.434006 200.09201 64.102005 203.99701 60.196007C 226.022 38.172005 251.988 21.821007 281.173 11.600006C 320.331 -2.111 362.231 -3.69 402.344 7.039C 405.798 7.9630003 408.496 10.661 409.41998 14.115C 420.14798 54.228996 418.57098 96.129 404.857 135.285C 394.636 164.47 378.286 190.435 356.261 212.46C 354.309 214.412 351.75 215.389 349.19 215.389z" stroke="none" fill="#5E2A41" fill-rule="nonzero" />
				</g>
				<g>
                    <path d="M395.41 141.98C 392.85 141.98 390.292 141.00299 388.339 139.051L388.339 139.051L277.409 28.12C 273.504 24.215 273.504 17.883 277.409 13.977001C 281.317 10.072001 287.647 10.074001 291.552 13.977001L291.552 13.977001L402.482 124.908005C 406.387 128.813 406.387 135.145 402.482 139.05101C 400.528 141.003 397.969 141.98 395.41 141.98z" stroke="none" fill="#5E2A41" fill-rule="nonzero" />
				</g>
				<g>
                    <path d="M90.22 217.929C 89.388 217.929 88.55 217.825 87.743004 217.62L87.743004 217.62L21.413002 200.73999C 18.376001 199.967 15.876001 197.814 14.662003 194.926C 13.447002 192.03699 13.657002 188.745 15.228003 186.034C 23.006002 172.616 32.583 160.174 43.695 149.052C 78.976 113.771 127.814 94.607 177.68301 96.515C 183.05202 96.691 187.35402 101.098 187.35402 106.509C 187.35402 112.031006 182.88202 116.509 177.35902 116.509L177.35902 116.509L177.34903 116.509C 177.22203 116.509 177.09503 116.507 176.96803 116.502C 132.63004 114.803 89.20303 131.827 57.841034 163.19C 51.157036 169.879 45.099033 177.104 39.740036 184.766L39.740036 184.766L92.47003 198.18501C 96.90503 199.20901 100.215034 203.18301 100.215034 207.92801C 100.215 213.451 95.743 217.929 90.22 217.929z" stroke="none" fill="#5E2A41" fill-rule="nonzero" />
				</g>
				<g>
                    <path d="M225.41 402.579C 224.095 402.579 222.77701 402.32 221.534 401.797C 218.644 400.582 216.492 398.083 215.719 395.047L215.719 395.047L198.82799 328.707C 197.46498 323.354 200.69998 317.911 206.05199 316.549C 211.40099 315.183 216.84698 318.42 218.20999 323.772L218.20999 323.772L231.68999 376.72C 239.35298 371.361 246.57898 365.301 253.27098 358.616C 284.63098 327.25598 301.649 283.831 299.955 239.48C 299.745 233.961 304.04797 229.317 309.56598 229.106C 315.07498 228.873 319.72998 233.199 319.94098 238.71701C 321.844 288.614 302.69797 337.47202 267.40897 372.76102C 256.28497 383.87402 243.84196 393.45203 230.42297 401.23102C 228.881 402.126 227.148 402.579 225.41 402.579z" stroke="none" fill="#5E2A41" fill-rule="nonzero" />
				</g>
			</g>
		</g>
	</g>
</g>
</svg>